<svg width="851" height="442" viewBox="0 0 851 442" fill="none" xmlns="http://www.w3.org/2000/svg">
<rect width="851" height="442" fill="#f3f0ec"/>
<path d="M108.273 102.909H121.727L153.364 180.182H154.455L186.091 102.909H199.545V196H189V125.273H188.091L159 196H148.818L119.727 125.273H118.818V196H108.273V102.909Z" fill="black"/>
<path d="M227.818 181V111.182H238.545V181H227.818ZM233.273 99.5455C231.182 99.5455 229.379 98.8333 227.864 97.4091C226.379 95.9848 225.636 94.2727 225.636 92.2727C225.636 90.2727 226.379 88.5606 227.864 87.1364C229.379 85.7121 231.182 85 233.273 85C235.364 85 237.152 85.7121 238.636 87.1364C240.152 88.5606 240.909 90.2727 240.909 92.2727C240.909 94.2727 240.152 95.9848 238.636 97.4091C237.152 98.8333 235.364 99.5455 233.273 99.5455ZM268.92 139V181H258.193V111.182H268.557V122.091H269.466C271.102 118.545 273.587 115.697 276.92 113.545C280.254 111.364 284.557 110.273 289.83 110.273C294.557 110.273 298.693 111.242 302.239 113.182C305.784 115.091 308.542 118 310.511 121.909C312.481 125.788 313.466 130.697 313.466 136.636V181H302.739V137.364C302.739 131.879 301.314 127.606 298.466 124.545C295.617 121.455 291.708 119.909 286.739 119.909C283.314 119.909 280.254 120.652 277.557 122.136C274.89 123.621 272.784 125.788 271.239 128.636C269.693 131.485 268.92 134.939 268.92 139Z" fill="black"/>
<path d="M261.818 270V200.182H272.182V210.727H272.909C274.182 207.273 276.485 204.47 279.818 202.318C283.152 200.167 286.909 199.091 291.091 199.091C291.879 199.091 292.864 199.106 294.045 199.136C295.227 199.167 296.121 199.212 296.727 199.273V210.182C296.364 210.091 295.53 209.955 294.227 209.773C292.955 209.561 291.606 209.455 290.182 209.455C286.788 209.455 283.758 210.167 281.091 211.591C278.455 212.985 276.364 214.924 274.818 217.409C273.303 219.864 272.545 222.667 272.545 225.818V270H261.818ZM335.682 271.455C329.379 271.455 323.848 269.955 319.091 266.955C314.364 263.955 310.667 259.758 308 254.364C305.364 248.97 304.045 242.667 304.045 235.455C304.045 228.182 305.364 221.833 308 216.409C310.667 210.985 314.364 206.773 319.091 203.773C323.848 200.773 329.379 199.273 335.682 199.273C341.985 199.273 347.5 200.773 352.227 203.773C356.985 206.773 360.682 210.985 363.318 216.409C365.985 221.833 367.318 228.182 367.318 235.455C367.318 242.667 365.985 248.97 363.318 254.364C360.682 259.758 356.985 263.955 352.227 266.955C347.5 269.955 341.985 271.455 335.682 271.455ZM335.682 261.818C340.47 261.818 344.409 260.591 347.5 258.136C350.591 255.682 352.879 252.455 354.364 248.455C355.848 244.455 356.591 240.121 356.591 235.455C356.591 230.788 355.848 226.439 354.364 222.409C352.879 218.379 350.591 215.121 347.5 212.636C344.409 210.152 340.47 208.909 335.682 208.909C330.894 208.909 326.955 210.152 323.864 212.636C320.773 215.121 318.485 218.379 317 222.409C315.515 226.439 314.773 230.788 314.773 235.455C314.773 240.121 315.515 244.455 317 248.455C318.485 252.455 320.773 255.682 323.864 258.136C326.955 260.591 330.894 261.818 335.682 261.818ZM411.875 297.636C406.693 297.636 402.239 296.97 398.511 295.636C394.784 294.333 391.678 292.606 389.193 290.455C386.739 288.333 384.784 286.061 383.33 283.636L391.875 277.636C392.845 278.909 394.072 280.364 395.557 282C397.042 283.667 399.072 285.106 401.648 286.318C404.254 287.561 407.663 288.182 411.875 288.182C417.511 288.182 422.163 286.818 425.83 284.091C429.496 281.364 431.33 277.091 431.33 271.273V257.091H430.42C429.633 258.364 428.511 259.939 427.057 261.818C425.633 263.667 423.572 265.318 420.875 266.773C418.208 268.197 414.602 268.909 410.057 268.909C404.42 268.909 399.36 267.576 394.875 264.909C390.42 262.242 386.89 258.364 384.284 253.273C381.708 248.182 380.42 242 380.42 234.727C380.42 227.576 381.678 221.348 384.193 216.045C386.708 210.712 390.208 206.591 394.693 203.682C399.178 200.742 404.36 199.273 410.239 199.273C414.784 199.273 418.39 200.03 421.057 201.545C423.754 203.03 425.814 204.727 427.239 206.636C428.693 208.515 429.814 210.061 430.602 211.273H431.693V200.182H442.057V272C442.057 278 440.693 282.879 437.966 286.636C435.269 290.424 431.633 293.197 427.057 294.955C422.511 296.742 417.451 297.636 411.875 297.636ZM411.511 259.273C415.814 259.273 419.451 258.288 422.42 256.318C425.39 254.348 427.648 251.515 429.193 247.818C430.739 244.121 431.511 239.697 431.511 234.545C431.511 229.515 430.754 225.076 429.239 221.227C427.723 217.379 425.481 214.364 422.511 212.182C419.542 210 415.875 208.909 411.511 208.909C406.966 208.909 403.178 210.061 400.148 212.364C397.148 214.667 394.89 217.758 393.375 221.636C391.89 225.515 391.148 229.818 391.148 234.545C391.148 239.394 391.905 243.682 393.42 247.409C394.966 251.106 397.239 254.015 400.239 256.136C403.269 258.227 407.027 259.273 411.511 259.273ZM461.693 270V200.182H472.057V210.727H472.784C474.057 207.273 476.36 204.47 479.693 202.318C483.027 200.167 486.784 199.091 490.966 199.091C491.754 199.091 492.739 199.106 493.92 199.136C495.102 199.167 495.996 199.212 496.602 199.273V210.182C496.239 210.091 495.405 209.955 494.102 209.773C492.83 209.561 491.481 209.455 490.057 209.455C486.663 209.455 483.633 210.167 480.966 211.591C478.33 212.985 476.239 214.924 474.693 217.409C473.178 219.864 472.42 222.667 472.42 225.818V270H461.693ZM529.864 271.636C525.439 271.636 521.424 270.803 517.818 269.136C514.212 267.439 511.348 265 509.227 261.818C507.106 258.606 506.045 254.727 506.045 250.182C506.045 246.182 506.833 242.939 508.409 240.455C509.985 237.939 512.091 235.97 514.727 234.545C517.364 233.121 520.273 232.061 523.455 231.364C526.667 230.636 529.894 230.061 533.136 229.636C537.379 229.091 540.818 228.682 543.455 228.409C546.121 228.106 548.061 227.606 549.273 226.909C550.515 226.212 551.136 225 551.136 223.273V222.909C551.136 218.424 549.909 214.939 547.455 212.455C545.03 209.97 541.348 208.727 536.409 208.727C531.288 208.727 527.273 209.848 524.364 212.091C521.455 214.333 519.409 216.727 518.227 219.273L508.045 215.636C509.864 211.394 512.288 208.091 515.318 205.727C518.379 203.333 521.712 201.667 525.318 200.727C528.955 199.758 532.53 199.273 536.045 199.273C538.288 199.273 540.864 199.545 543.773 200.091C546.712 200.606 549.545 201.682 552.273 203.318C555.03 204.955 557.318 207.424 559.136 210.727C560.955 214.03 561.864 218.455 561.864 224V270H551.136V260.545H550.591C549.864 262.061 548.652 263.682 546.955 265.409C545.258 267.136 543 268.606 540.182 269.818C537.364 271.03 533.924 271.636 529.864 271.636ZM531.5 262C535.742 262 539.318 261.167 542.227 259.5C545.167 257.833 547.379 255.682 548.864 253.045C550.379 250.409 551.136 247.636 551.136 244.727V234.909C550.682 235.455 549.682 235.955 548.136 236.409C546.621 236.833 544.864 237.212 542.864 237.545C540.894 237.848 538.97 238.121 537.091 238.364C535.242 238.576 533.742 238.758 532.591 238.909C529.803 239.273 527.197 239.864 524.773 240.682C522.379 241.47 520.439 242.667 518.955 244.273C517.5 245.848 516.773 248 516.773 250.727C516.773 254.455 518.152 257.273 520.909 259.182C523.697 261.061 527.227 262 531.5 262ZM581.443 270V200.182H591.807V211.091H592.716C594.17 207.364 596.519 204.47 599.761 202.409C603.004 200.318 606.898 199.273 611.443 199.273C616.049 199.273 619.883 200.318 622.943 202.409C626.034 204.47 628.443 207.364 630.17 211.091H630.898C632.686 207.485 635.367 204.621 638.943 202.5C642.519 200.348 646.807 199.273 651.807 199.273C658.049 199.273 663.155 201.227 667.125 205.136C671.095 209.015 673.08 215.061 673.08 223.273V270H662.352V223.273C662.352 218.121 660.943 214.439 658.125 212.227C655.307 210.015 651.989 208.909 648.17 208.909C643.261 208.909 639.458 210.394 636.761 213.364C634.064 216.303 632.716 220.03 632.716 224.545V270H621.807V222.182C621.807 218.212 620.519 215.015 617.943 212.591C615.367 210.136 612.049 208.909 607.989 208.909C605.201 208.909 602.595 209.652 600.17 211.136C597.777 212.621 595.837 214.682 594.352 217.318C592.898 219.924 592.17 222.939 592.17 226.364V270H581.443ZM742.148 215.818L732.511 218.545C731.905 216.939 731.011 215.379 729.83 213.864C728.678 212.318 727.102 211.045 725.102 210.045C723.102 209.045 720.542 208.545 717.42 208.545C713.148 208.545 709.587 209.53 706.739 211.5C703.92 213.439 702.511 215.909 702.511 218.909C702.511 221.576 703.481 223.682 705.42 225.227C707.36 226.773 710.39 228.061 714.511 229.091L724.875 231.636C731.117 233.152 735.769 235.47 738.83 238.591C741.89 241.682 743.42 245.667 743.42 250.545C743.42 254.545 742.269 258.121 739.966 261.273C737.693 264.424 734.511 266.909 730.42 268.727C726.33 270.545 721.572 271.455 716.148 271.455C709.027 271.455 703.133 269.909 698.466 266.818C693.799 263.727 690.845 259.212 689.602 253.273L699.784 250.727C700.754 254.485 702.587 257.303 705.284 259.182C708.011 261.061 711.572 262 715.966 262C720.966 262 724.936 260.939 727.875 258.818C730.845 256.667 732.33 254.091 732.33 251.091C732.33 248.667 731.481 246.636 729.784 245C728.087 243.333 725.481 242.091 721.966 241.273L710.33 238.545C703.936 237.03 699.239 234.682 696.239 231.5C693.269 228.288 691.784 224.273 691.784 219.455C691.784 215.515 692.89 212.03 695.102 209C697.345 205.97 700.39 203.591 704.239 201.864C708.117 200.136 712.511 199.273 717.42 199.273C724.33 199.273 729.754 200.788 733.693 203.818C737.663 206.848 740.481 210.848 742.148 215.818Z" fill="black"/>
<path d="M188.273 288V194.909H219.727C227.03 194.909 233 196.227 237.636 198.864C242.303 201.47 245.758 205 248 209.455C250.242 213.909 251.364 218.879 251.364 224.364C251.364 229.848 250.242 234.833 248 239.318C245.788 243.803 242.364 247.379 237.727 250.045C233.091 252.682 227.152 254 219.909 254H197.364V244H219.545C224.545 244 228.561 243.136 231.591 241.409C234.621 239.682 236.818 237.348 238.182 234.409C239.576 231.439 240.273 228.091 240.273 224.364C240.273 220.636 239.576 217.303 238.182 214.364C236.818 211.424 234.606 209.121 231.545 207.455C228.485 205.758 224.424 204.909 219.364 204.909H199.545V288H188.273Z" fill="black"/>
<rect x="108" y="195" width="11" height="93" fill="black"/>
<rect x="149" y="196" width="10" height="133" fill="black"/>
<rect x="108" y="288.399" width="13.0406" height="127.416" transform="rotate(-40.0967 108 288.399)" fill="black"/>
<rect x="188" y="288" width="12" height="93" fill="black"/>
</svg>
