<?xml version="1.0" encoding="iso-8859-1"?>
<!-- Uploaded to: SVG Repo, www.svgrepo.com, Generator: SVG Repo Mixer Tools -->
<svg height="800px" width="800px" version="1.1" id="Layer_1" xmlns="http://www.w3.org/2000/svg" xmlns:xlink="http://www.w3.org/1999/xlink" 
	 viewBox="0 0 512.001 512.001" xml:space="preserve">
<path style="fill:#4FC0E8;" d="M512.001,256.006c0,141.395-114.606,255.998-255.996,255.994
	C114.606,512.004,0.001,397.402,0.001,256.006C-0.007,114.61,114.606,0,256.005,0C397.395,0,512.001,114.614,512.001,256.006z"/>
<path style="fill:#3DAED9;" d="M512.001,256.005c0-6.604-0.332-13.126-0.822-19.604c-0.511-0.549-109.44-109.488-110.025-110.025
	c-5.072-5.52-12.283-9.043-20.353-9.043h-11.223c-0.171-0.218-0.25-0.478-0.45-0.678c-0.296-0.295-0.67-0.434-1.002-0.666
	c-0.231-0.332-23.726-24.063-24.022-24.358c-2.708-2.708-7.095-2.708-9.804,0l-27.732,27.732c-0.639,0.639-1.146,1.406-1.498,2.255
	c-0.701,1.695-0.701,3.603,0,5.299c0.352,0.848,0.859,1.616,1.498,2.255l43.63,43.628h-42.791l-77.83-77.83l-0.002-0.001
	l-3.334-3.334c-0.634-0.636-1.394-1.142-2.235-1.494c-0.838-0.351-1.744-0.54-2.67-0.54h-124.8c-3.829,0-6.933,3.104-6.933,6.933
	v235.733c0,2.348,1.243,4.32,3.027,5.574c0.463,0.658,15.289,15.487,15.47,15.69c-2.684,0.958-4.63,3.457-4.63,6.469v6.933
	c0,8.071,3.524,15.282,9.046,20.355c0.535,0.582,122.868,122.915,123.45,123.451c0.141,0.154,0.297,0.29,0.441,0.441
	c6.477,0.491,12.998,0.821,19.601,0.821C397.395,512.004,512.001,397.401,512.001,256.005z"/>
<g>
	<path style="fill:#F4F6F9;" d="M421.862,232.53c-0.352-0.842-0.859-1.6-1.494-2.235l-55.462-55.462
		c-0.635-0.635-1.393-1.142-2.235-1.494c-0.838-0.35-1.744-0.539-2.67-0.539h-76.267V152c0-0.926-0.189-1.831-0.539-2.67
		c-0.352-0.842-0.859-1.6-1.494-2.235l-55.462-55.462c-0.635-0.635-1.393-1.142-2.235-1.494c-0.838-0.35-1.744-0.539-2.67-0.539
		h-124.8c-3.829,0-6.933,3.104-6.933,6.933v235.733c0,3.829,3.104,6.933,6.933,6.933h131.733v76.267
		c0,3.829,3.104,6.933,6.933,6.933h180.267c3.829,0,6.933-3.104,6.933-6.933V235.2C422.401,234.274,422.212,233.369,421.862,232.53z
		 M366.934,196.47l31.796,31.796h-31.796V196.47z M228.267,113.27l31.796,31.796h-31.796V113.27z M103.467,325.333V103.467h110.933
		V152c0,3.829,3.104,6.933,6.933,6.933h48.533V172.8h-34.667c-3.829,0-6.933,3.104-6.933,6.933v145.6H103.467z M242.134,408.533
		V186.667h110.933V235.2c0,3.829,3.104,6.933,6.933,6.933h48.533v166.4H242.134z"/>
	<path style="fill:#F4F6F9;" d="M305.069,126.916c0.352,0.848,0.859,1.616,1.498,2.255l27.731,27.731
		c1.355,1.355,3.129,2.031,4.902,2.031s3.548-0.677,4.902-2.031c2.708-2.708,2.708-7.095,0-9.804L328.204,131.2h52.596
		c7.648,0,13.867,6.219,13.867,13.867v20.8c0,3.829,3.104,6.933,6.933,6.933c3.829,0,6.933-3.104,6.933-6.933v-20.8
		c0-15.292-12.442-27.733-27.733-27.733h-52.596l15.898-15.898c2.708-2.708,2.708-7.095,0-9.804c-2.708-2.708-7.095-2.708-9.804,0
		l-27.731,27.731c-0.64,0.639-1.147,1.406-1.498,2.255C304.367,123.312,304.367,125.221,305.069,126.916z"/>
	<path style="fill:#F4F6F9;" d="M206.932,385.084c-0.352-0.848-0.859-1.616-1.498-2.255l-27.731-27.731
		c-2.708-2.708-7.095-2.708-9.804,0c-2.708,2.708-2.708,7.095,0,9.804l15.898,15.899h-52.596c-7.648,0-13.867-6.219-13.867-13.867
		V360c0-3.829-3.104-6.933-6.933-6.933s-6.933,3.104-6.933,6.933v6.933c0,15.292,12.442,27.733,27.733,27.733h52.596l-15.898,15.898
		c-2.708,2.708-2.708,7.095,0,9.804c1.355,1.355,3.129,2.031,4.902,2.031s3.548-0.677,4.902-2.031l27.731-27.731
		c0.64-0.639,1.147-1.406,1.498-2.255C207.634,388.688,207.634,386.779,206.932,385.084z"/>
</g>
</svg>